<?xml version="1.0" encoding="UTF-8"?>
<svg xmlns="http://www.w3.org/2000/svg" xmlns:xlink="http://www.w3.org/1999/xlink" width="100px" height="96px" viewBox="0 0 100 96" version="1.1">
<g id="surface1">
<path style=" stroke:none;fill-rule:nonzero;fill:rgb(0%,0%,0%);fill-opacity:1;" d="M 52.109375 1.695312 C 51.960938 1.710938 51.398438 1.765625 50.859375 1.804688 C 47.8125 2.070312 42.304688 3.300781 41.335938 3.945312 C 40.9375 4.210938 40.703125 4.707031 40.703125 5.261719 C 40.703125 6.109375 41.234375 6.652344 42.28125 6.878906 C 42.867188 7.003906 42.90625 7.003906 43.625 6.839844 C 44.625 6.605469 45.507812 6.550781 46.523438 6.660156 C 49.390625 6.972656 52.601562 8.210938 55.445312 10.117188 C 58.890625 12.414062 60.984375 15.027344 61.40625 17.5625 C 61.554688 18.476562 61.382812 19.648438 61.007812 20.257812 C 60.921875 20.398438 60.765625 20.792969 60.65625 21.136719 C 60.289062 22.28125 60.3125 23.867188 60.726562 25.105469 L 60.90625 25.640625 L 51.726562 34.855469 L 42.539062 44.070312 L 41.953125 43.90625 C 41.179688 43.6875 39.726562 43.671875 38.984375 43.867188 C 37.984375 44.140625 37.40625 44.503906 36.335938 45.523438 C 31.585938 50.078125 4.179688 76.492188 3.632812 77.050781 C 1.65625 79.050781 1.171875 80.996094 2.09375 83.199219 C 2.554688 84.3125 2.976562 84.800781 6.796875 88.652344 C 8.796875 90.675781 10.625 92.476562 10.859375 92.660156 C 12.960938 94.289062 15.578125 94.777344 17.648438 93.929688 C 18.820312 93.449219 18.171875 94.109375 35.265625 76.023438 C 45.484375 65.214844 51.460938 58.839844 51.625 58.566406 C 51.765625 58.320312 51.976562 57.875 52.09375 57.554688 C 52.28125 57.027344 52.296875 56.878906 52.296875 55.765625 C 52.296875 54.722656 52.273438 54.484375 52.125 54.078125 L 51.960938 53.609375 L 61.117188 44.414062 L 70.273438 35.222656 L 70.664062 35.464844 C 71.195312 35.804688 72.226562 36.21875 72.914062 36.367188 C 73.765625 36.558594 75.242188 36.535156 76.171875 36.3125 C 76.578125 36.21875 77.164062 36.132812 77.476562 36.132812 C 77.976562 36.132812 78.109375 36.164062 78.640625 36.421875 C 79.335938 36.777344 80.375 37.75 81.359375 38.996094 L 81.96875 39.765625 L 81.617188 40.234375 C 79.742188 42.738281 80.414062 46.445312 83.085938 48.351562 C 84.742188 49.53125 86.679688 49.851562 88.40625 49.222656 C 89.4375 48.847656 89.65625 48.660156 93.304688 45.019531 C 95.234375 43.097656 96.984375 41.308594 97.195312 41.050781 C 98.554688 39.339844 98.726562 37.066406 97.648438 34.980469 C 96.4375 32.628906 93.796875 31.292969 91.328125 31.796875 L 90.664062 31.9375 L 90.445312 31.671875 C 89.78125 30.894531 89.054688 29.640625 88.4375 28.195312 C 87.25 25.449219 86.140625 23.679688 84.101562 21.292969 C 82.96875 19.96875 71.59375 8.351562 70.640625 7.554688 C 66.484375 4.054688 61.914062 2.195312 56.289062 1.726562 C 55.429688 1.65625 52.757812 1.640625 52.109375 1.695312 Z M 52.109375 1.695312 "/>
</g>
</svg>
